<svg width="41.7px" height="50.88px" id="Слой_1" data-name="Слой 1" xmlns="http://www.w3.org/2000/svg" viewBox="0 0 41.7 50.88"><defs><style>.cls-1{fill:#a6b0bf;fill-rule:evenodd;}</style></defs><title>android</title><path class="cls-1" d="M16,9.52a1.59,1.59,0,1,0-1.6-1.59A1.6,1.6,0,0,0,16,9.52Zm9.62,0a1.59,1.59,0,1,0-1.6-1.59A1.6,1.6,0,0,0,25.66,9.52Zm16,20.68a3.21,3.21,0,0,1-6.42,0V17.47a3.21,3.21,0,0,1,6.42,0ZM8,14.29A12.67,12.67,0,0,1,13.28,4L11.63,1.2A.8.8,0,0,1,11.92.11.81.81,0,0,1,13,.4l1.61,2.76a12.88,12.88,0,0,1,12.45,0L28.68.4a.8.8,0,0,1,1.1-.29.79.79,0,0,1,.3,1.09L28.42,4a12.67,12.67,0,0,1,5.25,10.26H8ZM33.68,39.74H30.47v8a3.21,3.21,0,0,1-6.42,0v-8H17.64v8a3.21,3.21,0,0,1-6.42,0v-8H8V15.88H33.67V39.74ZM6.42,30.19a3.21,3.21,0,0,1-6.42,0V17.47a3.21,3.21,0,0,1,6.42,0Z"/></svg>