<svg width="38.79px" height="48px" id="Слой_1" data-name="Слой 1" xmlns="http://www.w3.org/2000/svg" viewBox="0 0 38.79 48"><defs><style>.cls-1{fill:#a6b0bf;fill-rule:evenodd;}</style></defs><title>apple</title><path class="cls-1" d="M26.4,7.66A10.62,10.62,0,0,0,28.88,0a10.65,10.65,0,0,0-7,3.64,10.1,10.1,0,0,0-2.53,7.43,8.81,8.81,0,0,0,7.07-3.4m6,17.84a10.6,10.6,0,0,0,6.39,9.71A26.37,26.37,0,0,1,35.49,42c-2,2.92-4,5.84-7.29,5.9S24,46,20.34,46s-4.78,1.84-7.8,2S7,44.83,5,41.92C.92,36-2.21,25.08,2,17.74a11.65,11.65,0,0,1,9.86-6c3.08-.06,6,2.09,7.86,2.09s5.41-2.58,9.12-2.2a11.1,11.1,0,0,1,8.71,4.76,10.86,10.86,0,0,0-5.15,9.13"/></svg>