<svg id="Слой_1" width="16px" height="16px" data-name="Слой 1" xmlns="http://www.w3.org/2000/svg" viewBox="0 0 16 16"><defs><style>.cls-1{fill:#818fa7;}</style></defs><title>Instagram</title><path class="cls-1" d="M8,0H4.7A5.33,5.33,0,0,0,1.3,1.3,5.13,5.13,0,0,0,0,4.7v6.6a5.33,5.33,0,0,0,1.3,3.4A5.13,5.13,0,0,0,4.7,16h6.6a5.33,5.33,0,0,0,3.4-1.3A5.13,5.13,0,0,0,16,11.3V4.7a5.33,5.33,0,0,0-1.3-3.4A5.13,5.13,0,0,0,11.3,0ZM8,1.5h3.2a3,3,0,0,1,2.4.9,4.17,4.17,0,0,1,.9,2.4v6.4a3,3,0,0,1-.9,2.4,3.41,3.41,0,0,1-2.4.9H4.8a3,3,0,0,1-2.4-.9,3.92,3.92,0,0,1-.9-2.4V4.8a3,3,0,0,1,.9-2.4,3.92,3.92,0,0,1,2.4-.9ZM8,3.9A4.06,4.06,0,0,0,3.9,8,4.06,4.06,0,0,0,8,12.1,4.06,4.06,0,0,0,12.1,8,4.06,4.06,0,0,0,8,3.9Zm0,6.8A2.7,2.7,0,1,1,10.7,8,2.69,2.69,0,0,1,8,10.7Zm4.3-6a1,1,0,0,0,1-1,.94.94,0,0,0-1-1,1,1,0,0,0-1,1A.94.94,0,0,0,12.3,4.7Z"/></svg>