<svg id="Слой_1" width="24px" height="24px" data-name="Слой 1" xmlns="http://www.w3.org/2000/svg" xmlns:xlink="http://www.w3.org/1999/xlink" viewBox="0 0 24 24"><defs><style>.cls-1{fill:none;}.cls-2{clip-path:url(#clip-path);}.cls-3,.cls-6{fill:#fff;}.cls-4{fill:#b21943;}.cls-4,.cls-5,.cls-6{fill-rule:evenodd;}.cls-5{fill:#233d76;}</style><clipPath id="clip-path"><circle class="cls-1" cx="-28.29" cy="12" r="8"/></clipPath></defs><title>US</title><circle class="cls-3" cx="12" cy="12" r="8"/><path class="cls-4" d="M19.78,10.15A8,8,0,0,1,20,11.38H12V10.15ZM12,7.69V8.92h7.38a8,8,0,0,0-.65-1.23Zm4.25-2.46H12V6.46h5.76A8,8,0,0,0,16.25,5.23Zm1.51,12.31H6.24a8,8,0,0,0,1.51,1.23h8.5A8,8,0,0,0,17.76,17.54ZM4.62,15.08a8,8,0,0,0,.65,1.23H18.73a8,8,0,0,0,.65-1.23ZM4,12.62a8,8,0,0,0,.19,1.23H19.78A8,8,0,0,0,20,12.62Z"/><path class="cls-5" d="M12,4a8,8,0,0,0-8,8c0,.21,0,.41,0,.62h8Z"/><path class="cls-6" d="M9.44,4.8l.16.5-.69-.5Zm1.85,0h-.53l.69.5-.16-.5ZM7.59,6.5H7.06l.69.5-.16-.5Zm1.84,0H8.91L9.6,7l-.16-.5Zm1.85,0h-.53l.69.5-.16-.5ZM5.74,8.19H5.22l.69.5-.16-.5Zm1.85,0H7.06l.69.5-.16-.5Zm1.84,0H8.91l.69.5-.16-.5Zm1.85,0h-.53l.69.5-.16-.5ZM5.74,9.88H5.22l.69.5-.16-.5Zm-1-.77H4.54l-.08.19.42.31-.16-.5Zm2.87.77H7.06l.69.5-.16-.5Zm1.84,0H8.91l.69.5-.16-.5Zm1.85,0h-.53l.69.5-.16-.5Zm-5.55,1.7H5.22l.69.5-.16-.5Zm1.85,0H7.06l.69.5-.16-.5Zm1.84,0H8.91l.69.5-.16-.5Zm1.85,0h-.53l.69.5-.16-.5Zm-6.47-.84H4.29l.69.5-.17-.5Zm1.85,0H6.14l.69.5-.16-.5Zm1.84,0H8l.69.5-.17-.5Zm1.85,0H9.84l.69.5-.16-.5ZM6.67,9H6.14l.69.5L6.67,9ZM8.51,9H8l.69.5L8.51,9Zm1.85,0H9.84l.69.5L10.36,9Zm-3.7-1.7H6.14l.69.5-.16-.5Zm1.84,0H8l.69.5-.17-.5Zm1.85,0H9.84l.69.5-.16-.5ZM8.51,5.65H8l.69.5-.17-.5Zm1.85,0H9.84l.69.5-.16-.5Z"/></svg>